<svg width="42" height="42" viewBox="0 0 42 42" fill="none" xmlns="http://www.w3.org/2000/svg">
<path fill-rule="evenodd" clip-rule="evenodd" d="M2.805 19.1492L14.37 27.1563L9.465 32.0746C9.33118 32.2027 9.22423 32.3561 9.15039 32.526C9.07656 32.6959 9.03731 32.8788 9.03496 33.064C9.0326 33.2492 9.06718 33.433 9.13667 33.6047C9.20616 33.7764 9.30917 33.9326 9.43969 34.064C9.5702 34.1955 9.72562 34.2997 9.89685 34.3704C10.0681 34.4412 10.2517 34.4772 10.437 34.4762C10.6223 34.4753 10.8055 34.4374 10.976 34.3649C11.1465 34.2924 11.3008 34.1867 11.43 34.0539L16.71 28.7757L20.205 31.2049C20.4385 31.3667 20.7159 31.4535 21 31.4535C21.2841 31.4535 21.5615 31.3667 21.795 31.2049L25.29 28.7757L30.555 34.0539C30.685 34.1838 30.8394 34.2869 31.0092 34.3572C31.1791 34.4276 31.3611 34.4638 31.545 34.4638C31.7289 34.4638 31.9109 34.4276 32.0808 34.3572C32.2506 34.2869 32.405 34.1838 32.535 34.0539C32.665 33.9239 32.7681 33.7696 32.8385 33.5998C32.9089 33.43 32.9451 33.248 32.9451 33.0642C32.9451 32.8804 32.9089 32.6984 32.8385 32.5286C32.7681 32.3588 32.665 32.2045 32.535 32.0746L27.63 27.1563L39.195 19.1492V34.5637C39.199 35.172 39.0823 35.775 38.8517 36.338C38.6211 36.9009 38.2812 37.4126 37.8516 37.8435C37.422 38.2743 36.9112 38.6158 36.3488 38.8481C35.7864 39.0804 35.1835 39.199 34.575 39.197H7.5C6.89147 39.199 6.28858 39.0804 5.72617 38.8481C5.16377 38.6158 4.653 38.2743 4.2234 37.8435C3.7938 37.4126 3.45388 36.9009 3.2233 36.338C2.99271 35.775 2.87603 35.172 2.88 34.5637L2.805 19.1492ZM13.5 15.0856C13.153 15.1215 12.8317 15.2847 12.5981 15.5437C12.3645 15.8026 12.2352 16.1389 12.2352 16.4876C12.2352 16.8363 12.3645 17.1726 12.5981 17.4316C12.8317 17.6905 13.153 17.8537 13.5 17.8896H28.5C28.6964 17.91 28.8948 17.8888 29.0825 17.8276C29.2702 17.7664 29.4429 17.6665 29.5895 17.5344C29.7361 17.4022 29.8533 17.2407 29.9336 17.0604C30.0138 16.8801 30.0552 16.685 30.0552 16.4876C30.0552 16.2903 30.0138 16.0951 29.9336 15.9148C29.8533 15.7345 29.7361 15.5731 29.5895 15.4409C29.4429 15.3087 29.2702 15.2088 29.0825 15.1476C28.8948 15.0864 28.6964 15.0653 28.5 15.0856H13.5ZM34.5 14.4409L38.04 16.5701L34.5 19.0292V14.4409ZM7.5 14.4409V18.9393L3.99 16.5701L7.5 14.4409ZM13.32 7.49834C12.9421 7.5222 12.5891 7.69517 12.3387 7.97918C12.0884 8.2632 11.9611 8.635 11.985 9.0128C12.0089 9.3906 12.1819 9.74344 12.466 9.99372C12.7501 10.244 13.1221 10.3712 13.5 10.3473H21C21.3779 10.3473 21.7404 10.1972 22.0076 9.9301C22.2749 9.66296 22.425 9.30063 22.425 8.92283C22.425 8.54503 22.2749 8.18271 22.0076 7.91557C21.7404 7.64842 21.3779 7.49834 21 7.49834H13.32ZM26.91 5.23415L30.075 8.99781H26.91V5.23415ZM12 2.80502H24.165V10.4973C24.165 10.8711 24.3136 11.2296 24.578 11.4939C24.8424 11.7583 25.201 11.9068 25.575 11.9068H31.71V20.9935L21 28.3409L10.335 20.9935V4.49941C10.3339 4.28691 10.3759 4.07639 10.4584 3.88054C10.5409 3.68469 10.6622 3.50756 10.815 3.35982C10.9578 3.18386 11.1385 3.04253 11.3438 2.94644C11.549 2.85035 11.7734 2.802 12 2.80502ZM25.5 0.00101781H12C10.8065 0.00101781 9.66193 0.474954 8.81802 1.31857C7.97411 2.16218 7.5 3.30636 7.5 4.49941V11.247L0.765 15.2956C0.542527 15.4097 0.354432 15.581 0.220001 15.7918C0.0855706 16.0026 0.00964177 16.2453 0 16.4951V34.5637C0.019762 36.5391 0.818654 38.4268 2.22304 39.8167C3.62743 41.2065 5.5238 41.9861 7.5 41.986H34.65C36.6001 41.9471 38.4583 41.1503 39.8305 39.7646C41.2027 38.3789 41.9809 36.5134 42 34.5637V16.4951C41.9985 16.2261 41.92 15.9632 41.7738 15.7373C41.6276 15.5115 41.4198 15.3322 41.175 15.2206L34.5 11.172V10.8571C34.5578 10.6307 34.5564 10.3931 34.496 10.1673C34.4356 9.94152 34.3182 9.73501 34.155 9.5676L26.655 0.570814C26.5252 0.38717 26.3516 0.238855 26.1499 0.139346C25.9481 0.0398366 25.7248 -0.00771287 25.5 0.00101781Z" fill="#1E3A8A"/>
</svg>
