<svg width="17" height="34" viewBox="0 0 17 34" fill="none" xmlns="http://www.w3.org/2000/svg">
<path fill-rule="evenodd" clip-rule="evenodd" d="M3.6967 16.9204V33.1464C3.6967 33.3656 3.89333 33.5849 4.16862 33.5849H10.6575C10.8935 33.5849 11.1294 33.4022 11.1294 33.1464V16.628H15.8093C16.0452 16.628 16.2419 16.4453 16.2812 16.226L16.6745 11.2924C16.7138 11.0366 16.4778 10.8173 16.2026 10.8173H11.0901V7.30901C11.0901 6.46847 11.798 5.81066 12.7025 5.81066H16.3205C16.5565 5.81066 16.7925 5.62794 16.7925 5.37212V0.43854C16.7925 0.21927 16.5958 0 16.3205 0H10.1856C6.60687 0 3.6967 2.70433 3.6967 6.02993V10.8173H0.471919C0.23596 10.8173 0 11.0001 0 11.2559V16.226C0 16.4453 0.196633 16.6645 0.471919 16.6645H3.6967V16.9204Z" fill="white"/>
</svg>
