<svg width="34" height="34" viewBox="0 0 34 34" fill="none" xmlns="http://www.w3.org/2000/svg">
<path d="M16.7644 22.383C15.6584 22.383 14.5773 22.055 13.6577 21.4406C12.7381 20.8261 12.0214 19.9528 11.5982 18.931C11.1749 17.9092 11.0642 16.7849 11.2799 15.7002C11.4957 14.6154 12.0283 13.6191 12.8103 12.837C13.5924 12.055 14.5887 11.5224 15.6735 11.3066C16.7582 11.0909 17.8825 11.2016 18.9043 11.6248C19.9261 12.0481 20.7994 12.7648 21.4139 13.6844C22.0283 14.604 22.3563 15.6851 22.3563 16.7911C22.3563 17.5254 22.2116 18.2526 21.9306 18.931C21.6496 19.6094 21.2377 20.2259 20.7184 20.7451C20.1992 21.2644 19.5827 21.6763 18.9043 21.9573C18.2259 22.2383 17.4987 22.383 16.7644 22.383Z" fill="white"/>
<path fill-rule="evenodd" clip-rule="evenodd" d="M32.7117 5.79339C33.1906 7.1022 33.4515 8.48069 33.4842 9.87396C33.5849 11.654 33.5849 12.2249 33.5849 16.7925C33.5849 19.6045 33.5467 20.9017 33.5174 21.8988C33.499 22.5213 33.4842 23.0268 33.4842 23.711C33.4515 25.1042 33.1906 26.4827 32.7117 27.7915C32.2891 28.9136 31.624 29.9285 30.7638 30.7638C29.9323 31.6245 28.9159 32.2849 27.7915 32.6949C26.4862 33.1883 25.1061 33.4553 23.7109 33.4842C21.9309 33.5849 21.36 33.5849 16.7925 33.5849C12.2249 33.5849 11.654 33.5849 9.87396 33.4842C8.47876 33.4553 7.09875 33.1883 5.7934 32.6949C4.67112 32.2807 3.65561 31.6209 2.82113 30.7638C1.96039 29.9323 1.30003 28.9159 0.889998 27.7915C0.39657 26.4862 0.129654 25.1062 0.100754 23.711C0 21.931 0 21.36 0 16.7925C0 12.2249 0 11.654 0.100754 9.87396C0.129654 8.47876 0.39657 7.09874 0.889998 5.79339C1.30003 4.66904 1.96039 3.65266 2.82113 2.82113C3.65561 1.96398 4.67112 1.30418 5.7934 0.889999C7.09875 0.396571 8.47876 0.129655 9.87396 0.100755C11.654 0 12.2249 0 16.7925 0C21.36 0 21.9309 0 23.7109 0.100755C25.1061 0.129655 26.4862 0.396571 27.7915 0.889999C28.9159 1.30003 29.9323 1.96039 30.7638 2.82113C31.6202 3.65954 32.2847 4.67356 32.7117 5.79339ZM25.7344 5.80848C25.3359 5.80848 24.9463 5.92667 24.6149 6.14809C24.2835 6.36951 24.0252 6.68422 23.8727 7.05243C23.7202 7.42064 23.6803 7.82581 23.7581 8.2167C23.8358 8.60759 24.0277 8.96665 24.3095 9.24846C24.5914 9.53028 24.9504 9.7222 25.3413 9.79995C25.7322 9.8777 26.1374 9.8378 26.5056 9.68528C26.8738 9.53276 27.1885 9.27448 27.4099 8.9431C27.6313 8.61172 27.7495 8.22212 27.7495 7.82358C27.7495 7.28914 27.5372 6.77659 27.1593 6.39869C26.7814 6.02079 26.2689 5.80848 25.7344 5.80848ZM16.7644 8.17655C15.0613 8.17987 13.3974 8.68792 11.983 9.63651C10.5685 10.5851 9.46702 11.9317 8.81758 13.5061C8.16814 15.0804 7.99994 16.812 8.33422 18.482C8.66851 20.1519 9.49029 21.6853 10.6957 22.8884C11.9011 24.0915 13.4361 24.9102 15.1067 25.2413C16.7773 25.5723 18.5086 25.4007 20.0817 24.7482C21.6548 24.0957 22.9992 22.9916 23.945 21.5753C24.8909 20.159 25.3957 18.4942 25.3957 16.7911C25.3979 15.6578 25.1761 14.5352 24.7429 13.4879C24.3097 12.4407 23.6737 11.4894 22.8716 10.6888C22.0694 9.88819 21.1169 9.25408 20.0688 8.82294C19.0207 8.39179 17.8977 8.17212 16.7644 8.17655Z" fill="white"/>
</svg>
