<svg width="42" height="42" viewBox="0 0 42 42" fill="none" xmlns="http://www.w3.org/2000/svg">
<path d="M4.74173 8.98912L9.87924 4.25515C10.0606 4.08697 10.2736 3.95654 10.5057 3.87145C10.7378 3.78636 10.9845 3.74829 11.2315 3.75946C11.4784 3.77063 11.7207 3.83081 11.9442 3.93652C12.1677 4.04222 12.3681 4.19134 12.5336 4.37522L16.0785 8.30304C15.9072 8.52601 15.3764 9.04058 14.6914 9.89818L12.585 12.6597C12.5295 12.7275 12.4835 12.8025 12.448 12.8826C11.8632 13.9153 11.4989 15.0583 11.378 16.2392C11.2571 17.4202 11.3824 18.6135 11.7459 19.7435C12.5792 22.0255 13.9001 24.0977 15.6161 25.8153C17.196 27.6712 19.199 29.1185 21.4558 30.0347C22.5191 30.456 23.6676 30.6167 24.8055 30.5033C25.9435 30.3899 27.0379 30.0058 27.9975 29.3829L30.9088 27.479C31.8164 26.8787 32.3815 26.3813 32.6213 26.2269L36.1661 30.0861C36.3373 30.2656 36.4707 30.4777 36.5584 30.7098C36.6461 30.9419 36.6864 31.1892 36.6768 31.4372C36.6672 31.6852 36.6079 31.9287 36.5026 32.1533C36.3972 32.3779 36.2479 32.579 36.0634 32.7447L30.9259 37.4958C29.4703 38.8165 26.4734 38.9538 23.1683 37.9589C20.0469 37.0296 17.1931 35.3652 14.8455 33.1049L7.75573 25.4722C5.70434 22.9379 4.28387 19.9513 3.61148 16.759C2.90935 13.38 3.2861 10.3956 4.74173 8.98912ZM2.54973 6.69074C-0.258779 9.26355 -0.378653 13.5516 0.443348 17.4279C1.19356 21.2204 2.89029 24.7608 5.37535 27.7192L12.4137 35.4033C15.1315 38.1251 18.4968 40.1085 22.1921 41.1664C26.0281 42.3327 30.2409 42.5557 33.0494 39.9657L38.1869 35.2318C39.1807 34.3097 39.7707 33.0318 39.8284 31.6762C39.8861 30.3206 39.4069 28.9971 38.4951 27.9936L35.0188 24.1344C34.5744 23.597 33.977 23.208 33.3063 23.0195C32.6432 22.8905 31.9561 22.9871 31.354 23.2939C30.5856 23.7441 29.8579 24.2606 29.1791 24.8376L26.285 26.7586C25.7545 27.1199 25.1392 27.3367 24.4997 27.3878C23.8602 27.439 23.2184 27.3226 22.6374 27.0502C20.8656 26.2735 19.2955 25.0999 18.0479 23.6198C16.668 22.2288 15.5946 20.5636 14.8969 18.7315C14.6384 18.0261 14.5411 17.2716 14.6123 16.5236C14.6834 15.7756 14.9211 15.053 15.3079 14.4092L17.3457 11.8535C17.9723 11.2159 18.5451 10.5275 19.0582 9.79527C19.4112 9.22081 19.562 8.5445 19.4864 7.87424C19.3665 7.172 19.0313 6.52457 18.5274 6.02181L14.914 2.24836C13.9934 1.253 12.7175 0.66211 11.3641 0.604289C10.0106 0.546467 8.68913 1.0264 7.68723 1.93963L2.54973 6.69074Z" fill="#1E3A8A"/>
<path d="M5.08574 4.30823C4.80174 4.6234 4.64453 5.03286 4.64453 5.45741C4.64453 5.88196 4.80174 6.29143 5.08574 6.6066L12.1755 14.3422C12.4794 14.6386 12.8824 14.8115 13.3064 14.8274C13.7304 14.8432 14.1451 14.7009 14.4703 14.4279C14.6268 14.2851 14.7537 14.1127 14.8437 13.9206C14.9336 13.7286 14.9848 13.5206 14.9943 13.3087C15.0039 13.0968 14.9716 12.885 14.8993 12.6856C14.827 12.4863 14.7161 12.3031 14.573 12.1467L7.39762 4.41114C7.25455 4.24918 7.08041 4.11769 6.88557 4.02452C6.69073 3.93134 6.47916 3.87838 6.26346 3.86878C6.04776 3.85918 5.83234 3.89313 5.63001 3.96863C5.42768 4.04412 5.24259 4.15961 5.08574 4.30823Z" fill="#1E3A8A"/>
<path d="M26.3709 27.4801C26.0869 27.7953 25.9297 28.2047 25.9297 28.6293C25.9297 29.0538 26.0869 29.4633 26.3709 29.7785L33.4778 37.514C33.7685 37.8302 34.1726 38.0178 34.6014 38.0354C35.0301 38.0531 35.4483 37.8995 35.764 37.6084C36.0796 37.3173 36.2669 36.9124 36.2846 36.483C36.3022 36.0536 36.1488 35.6347 35.8582 35.3186L28.6828 27.583C28.5397 27.4211 28.3656 27.2896 28.1707 27.1964C27.9759 27.1032 27.7643 27.0503 27.5486 27.0407C27.3329 27.0311 27.1175 27.065 26.9152 27.1405C26.7128 27.216 26.5277 27.3315 26.3709 27.4801Z" fill="#1E3A8A"/>
<path d="M27.2239 7.27543C26.9882 7.49376 26.823 7.77773 26.7496 8.09082C26.6762 8.40391 26.698 8.73183 26.8122 9.03242C26.9264 9.33301 27.1277 9.59254 27.3902 9.77765C27.6528 9.96276 27.9646 10.065 28.2857 10.0712C29.2973 10.1202 30.2485 10.5678 30.9318 11.3165C31.6152 12.0652 31.9752 13.0541 31.9333 14.0676C31.9254 14.2794 31.9593 14.4906 32.0329 14.6892C32.1065 14.8878 32.2185 15.07 32.3624 15.2253C32.5063 15.3806 32.6794 15.506 32.8717 15.5943C33.0639 15.6826 33.2717 15.7321 33.4831 15.74C33.6945 15.7478 33.9054 15.714 34.1037 15.6402C34.302 15.5665 34.4839 15.4543 34.6389 15.3102C34.794 15.166 34.9192 14.9927 35.0073 14.8001C35.0955 14.6075 35.1449 14.3994 35.1528 14.1877C35.2112 13.2412 35.0775 12.2927 34.7596 11.3994C34.4417 10.5062 33.9463 9.68672 33.3033 8.99063C32.0323 7.61907 30.2722 6.80542 28.4055 6.72656C27.9549 6.74649 27.5302 6.94373 27.2239 7.27543Z" fill="#1E3A8A"/>
<path d="M27.3997 0.534099C27.1926 0.763659 27.0558 1.04804 27.0057 1.35332C26.9556 1.65859 26.9942 1.97186 27.117 2.25575C27.2397 2.53964 27.4415 2.78216 27.6981 2.95437C27.9547 3.12658 28.2553 3.22121 28.5642 3.22697C29.9581 3.28428 31.3271 3.61663 32.5926 4.20496C33.858 4.79329 34.9951 5.62603 35.9385 6.65543C36.882 7.68482 37.6132 8.89062 38.0904 10.2037C38.5676 11.5167 38.7813 12.9112 38.7193 14.3072C38.6954 14.7511 38.8445 15.1871 39.1352 15.523C39.4259 15.859 39.8355 16.0688 40.2777 16.1082C40.7319 16.1082 41.1675 15.9275 41.4886 15.6058C41.8098 15.2841 41.9902 14.8479 41.9902 14.393C42.0658 12.5716 41.7811 10.7532 41.1523 9.04245C40.5235 7.33172 39.5631 5.76244 38.3264 4.42493C37.0897 3.08743 35.6011 2.00811 33.9462 1.24911C32.2914 0.490105 30.503 0.0664006 28.684 0.002385C28.4439 -0.0107117 28.2039 0.0302517 27.9816 0.122265C27.7594 0.214279 27.5605 0.355004 27.3997 0.534099Z" fill="#1E3A8A"/>
<path d="M24.397 15.0279C24.2407 15.1721 24.1142 15.3457 24.0249 15.5388C23.9356 15.7319 23.8851 15.9407 23.8764 16.1533C23.8676 16.3659 23.9008 16.5782 23.9739 16.778C24.0471 16.9778 24.1588 17.1612 24.3028 17.3177C24.4467 17.4743 24.62 17.6009 24.8128 17.6904C25.0056 17.7798 25.2141 17.8304 25.4264 17.8391C25.6386 17.8479 25.8506 17.8147 26.0501 17.7414C26.2495 17.6681 26.4327 17.5562 26.589 17.4121L27.8733 16.2286C28.189 15.9375 28.3762 15.5326 28.3939 15.1032C28.4116 14.6738 28.2582 14.2549 27.9675 13.9388C27.6768 13.6226 27.2727 13.4351 26.8439 13.4174C26.4152 13.3997 25.997 13.5533 25.6813 13.8445L24.397 15.0279Z" fill="#1E3A8A"/>
</svg>
