<svg width="22" height="22" viewBox="0 0 22 22" fill="none" xmlns="http://www.w3.org/2000/svg">
<path d="M8.14236 15.1181L10.9861 13.3924L13.8299 15.1181L13.0764 11.8854L15.6042 9.69792L12.2743 9.43056L10.9861 6.36806L9.69792 9.43056L6.36806 9.69792L8.89583 11.8854L8.14236 15.1181ZM10.9861 21.9722L7.72917 18.7639H3.20833V14.2431L0 10.9861L3.20833 7.72917V3.20833H7.72917L10.9861 0L14.2431 3.20833H18.7639V7.72917L21.9722 10.9861L18.7639 14.2431V18.7639H14.2431L10.9861 21.9722ZM10.9861 19.25L13.4167 16.8194H16.8194V13.4167L19.25 10.9861L16.8194 8.55556V5.15278H13.4167L10.9861 2.72222L8.55556 5.15278H5.15278V8.55556L2.72222 10.9861L5.15278 13.4167V16.8194H8.55556L10.9861 19.25Z" fill="white"/>
</svg>
