<svg width="34" height="27" viewBox="0 0 34 27" fill="none" xmlns="http://www.w3.org/2000/svg">
<path d="M33.5849 3.18245C32.3215 3.72498 30.9854 4.08557 29.6177 4.2531C31.0591 3.41106 32.1368 2.07769 32.6465 0.505639C31.2971 1.29353 29.8209 1.84844 28.2816 2.14637C27.3375 1.15331 26.1119 0.462849 24.7639 0.164769C23.416 -0.133312 22.0081 -0.0252244 20.7234 0.474977C19.4387 0.975178 18.3365 1.84435 17.5603 2.9695C16.784 4.09464 16.3695 5.42369 16.3706 6.78387C16.3653 7.3029 16.4189 7.8209 16.5302 8.32825C13.7911 8.19603 11.1112 7.49614 8.66562 6.27433C6.22007 5.05252 4.06397 3.3363 2.33827 1.23787C1.45229 2.72908 1.17773 4.49696 1.57063 6.18069C1.96354 7.86442 2.99429 9.33705 4.4525 10.298C3.36309 10.269 2.29671 9.98265 1.34322 9.46303V9.53689C1.34501 11.1023 1.89452 12.6193 2.89926 13.8326C3.904 15.0458 5.3026 15.8812 6.85966 16.1982C6.27061 16.3511 5.66353 16.4261 5.05438 16.4215C4.61697 16.4291 4.18001 16.3902 3.75106 16.3056C4.19605 17.651 5.05367 18.8275 6.20586 19.6731C7.35804 20.5188 8.74814 20.992 10.1848 21.0277C7.74766 22.9042 4.74198 23.9222 1.64808 23.9191C1.09726 23.9226 0.546771 23.8915 0 23.8257C3.14831 25.8231 6.81695 26.8797 10.5623 26.8678C23.232 26.8678 30.1592 16.5349 30.1592 7.57822C30.1592 7.27841 30.1486 6.98934 30.1339 6.70195C31.492 5.74508 32.6615 4.5524 33.5849 3.18245Z" fill="white"/>
</svg>
